<mxfile host="Electron" modified="2024-06-16T15:47:26.761Z" agent="Mozilla/5.0 (Windows NT 10.0; Win64; x64) AppleWebKit/537.36 (KHTML, like Gecko) draw.io/24.4.0 Chrome/120.0.6099.109 Electron/28.1.0 Safari/537.36" etag="Ahs-pn2hd7i6iAuzj8Qc" version="24.4.0" type="device">
  <diagram name="Page-1" id="syD8DlurnCnLwDXA0f9E">
    <mxGraphModel dx="3726" dy="1406" grid="1" gridSize="10" guides="1" tooltips="1" connect="1" arrows="1" fold="1" page="1" pageScale="1" pageWidth="827" pageHeight="1169" math="0" shadow="0">
      <root>
        <mxCell id="0" />
        <mxCell id="1" parent="0" />
        <mxCell id="T6KaMjCdg2ulaxOOMzz2-3" value="&lt;font style=&quot;font-size: 24px;&quot;&gt;Carte de conditionement&lt;/font&gt;" style="whiteSpace=wrap;html=1;aspect=fixed;" parent="1" vertex="1">
          <mxGeometry x="-160" y="360" width="260" height="260" as="geometry" />
        </mxCell>
        <mxCell id="T6KaMjCdg2ulaxOOMzz2-4" value="&lt;font style=&quot;font-size: 24px;&quot;&gt;Carte pont en H&lt;/font&gt;" style="whiteSpace=wrap;html=1;aspect=fixed;" parent="1" vertex="1">
          <mxGeometry x="-460" y="760" width="260" height="260" as="geometry" />
        </mxCell>
        <mxCell id="T6KaMjCdg2ulaxOOMzz2-5" value="&lt;font style=&quot;font-size: 24px;&quot;&gt;Carte Filtrage&lt;/font&gt;" style="whiteSpace=wrap;html=1;aspect=fixed;" parent="1" vertex="1">
          <mxGeometry x="-60" y="755" width="260" height="260" as="geometry" />
        </mxCell>
        <mxCell id="T6KaMjCdg2ulaxOOMzz2-6" value="&lt;font style=&quot;font-size: 24px;&quot;&gt;Module Bluetooth&lt;/font&gt;" style="whiteSpace=wrap;html=1;aspect=fixed;" parent="1" vertex="1">
          <mxGeometry x="-530" y="360" width="260" height="260" as="geometry" />
        </mxCell>
        <mxCell id="uKnK6LyMqeHW5GNhJm-Y-1" value="" style="aspect=fixed;pointerEvents=1;shadow=0;dashed=0;html=1;strokeColor=none;labelPosition=center;verticalLabelPosition=bottom;verticalAlign=top;align=center;fillColor=#00188D;shape=mxgraph.mscae.enterprise.wireless_connection;rotation=-180;" vertex="1" parent="1">
          <mxGeometry x="-760" y="423.95" width="110.97" height="132.11" as="geometry" />
        </mxCell>
        <mxCell id="uKnK6LyMqeHW5GNhJm-Y-3" value="" style="html=1;verticalLabelPosition=bottom;align=center;labelBackgroundColor=#ffffff;verticalAlign=top;strokeWidth=2;strokeColor=#0080F0;shadow=0;dashed=0;shape=mxgraph.ios7.icons.bluetooth;pointerEvents=1" vertex="1" parent="1">
          <mxGeometry x="-620" y="445" width="50" height="90" as="geometry" />
        </mxCell>
        <mxCell id="uKnK6LyMqeHW5GNhJm-Y-4" value="" style="verticalLabelPosition=bottom;html=1;verticalAlign=top;align=center;strokeColor=none;fillColor=#00BEF2;shape=mxgraph.azure.laptop;pointerEvents=1;" vertex="1" parent="1">
          <mxGeometry x="-920" y="383.96" width="150" height="80" as="geometry" />
        </mxCell>
        <mxCell id="uKnK6LyMqeHW5GNhJm-Y-5" value="" style="verticalLabelPosition=bottom;html=1;verticalAlign=top;align=center;strokeColor=none;fillColor=#00BEF2;shape=mxgraph.azure.mobile;pointerEvents=1;" vertex="1" parent="1">
          <mxGeometry x="-880" y="491.07" width="70" height="105" as="geometry" />
        </mxCell>
        <mxCell id="uKnK6LyMqeHW5GNhJm-Y-6" value="&lt;font style=&quot;font-size: 24px;&quot;&gt;DE10-Lite&lt;/font&gt;" style="rounded=1;whiteSpace=wrap;html=1;" vertex="1" parent="1">
          <mxGeometry x="210" y="435.01" width="260" height="110" as="geometry" />
        </mxCell>
        <mxCell id="uKnK6LyMqeHW5GNhJm-Y-8" value="" style="endArrow=none;html=1;rounded=0;exitX=1;exitY=0.053;exitDx=0;exitDy=0;exitPerimeter=0;entryX=0.001;entryY=0.053;entryDx=0;entryDy=0;entryPerimeter=0;strokeWidth=5;" edge="1" parent="1" source="T6KaMjCdg2ulaxOOMzz2-6" target="T6KaMjCdg2ulaxOOMzz2-3">
          <mxGeometry width="50" height="50" relative="1" as="geometry">
            <mxPoint x="-250" y="410" as="sourcePoint" />
            <mxPoint x="-200" y="360" as="targetPoint" />
          </mxGeometry>
        </mxCell>
        <mxCell id="uKnK6LyMqeHW5GNhJm-Y-9" value="GND" style="edgeLabel;html=1;align=center;verticalAlign=middle;resizable=0;points=[];fontSize=20;" vertex="1" connectable="0" parent="uKnK6LyMqeHW5GNhJm-Y-8">
          <mxGeometry x="0.4442" y="-1" relative="1" as="geometry">
            <mxPoint x="-50" y="-25" as="offset" />
          </mxGeometry>
        </mxCell>
        <mxCell id="uKnK6LyMqeHW5GNhJm-Y-10" value="" style="endArrow=none;html=1;rounded=0;exitX=1;exitY=0.053;exitDx=0;exitDy=0;exitPerimeter=0;entryX=0.001;entryY=0.053;entryDx=0;entryDy=0;entryPerimeter=0;strokeWidth=5;strokeColor=#FF0000;" edge="1" parent="1">
          <mxGeometry width="50" height="50" relative="1" as="geometry">
            <mxPoint x="-270" y="399.52" as="sourcePoint" />
            <mxPoint x="-160" y="399.52" as="targetPoint" />
          </mxGeometry>
        </mxCell>
        <mxCell id="uKnK6LyMqeHW5GNhJm-Y-11" value="&lt;font color=&quot;#ff0000&quot; style=&quot;font-size: 20px;&quot;&gt;+ 5 V&lt;/font&gt;" style="edgeLabel;html=1;align=center;verticalAlign=middle;resizable=0;points=[];fontSize=20;" vertex="1" connectable="0" parent="uKnK6LyMqeHW5GNhJm-Y-10">
          <mxGeometry x="0.4442" y="-1" relative="1" as="geometry">
            <mxPoint x="-50" y="19" as="offset" />
          </mxGeometry>
        </mxCell>
        <mxCell id="uKnK6LyMqeHW5GNhJm-Y-12" value="" style="endArrow=none;html=1;rounded=0;exitX=1;exitY=0.053;exitDx=0;exitDy=0;exitPerimeter=0;entryX=0.001;entryY=0.053;entryDx=0;entryDy=0;entryPerimeter=0;strokeWidth=5;strokeColor=#0000CC;" edge="1" parent="1">
          <mxGeometry width="50" height="50" relative="1" as="geometry">
            <mxPoint x="-270" y="585" as="sourcePoint" />
            <mxPoint x="-160" y="585" as="targetPoint" />
          </mxGeometry>
        </mxCell>
        <mxCell id="uKnK6LyMqeHW5GNhJm-Y-13" value="&lt;font style=&quot;font-size: 17px;&quot;&gt;Canal Audio&lt;/font&gt;&lt;div&gt;&lt;font style=&quot;font-size: 17px;&quot;&gt;Gauche&lt;/font&gt;&lt;/div&gt;" style="edgeLabel;html=1;align=center;verticalAlign=middle;resizable=0;points=[];fontColor=#0000CC;fontSize=17;" vertex="1" connectable="0" parent="uKnK6LyMqeHW5GNhJm-Y-12">
          <mxGeometry x="0.4442" y="-1" relative="1" as="geometry">
            <mxPoint x="-29" y="-30" as="offset" />
          </mxGeometry>
        </mxCell>
        <mxCell id="uKnK6LyMqeHW5GNhJm-Y-14" value="" style="endArrow=none;html=1;rounded=0;exitX=1;exitY=0.053;exitDx=0;exitDy=0;exitPerimeter=0;entryX=0.001;entryY=0.053;entryDx=0;entryDy=0;entryPerimeter=0;strokeWidth=5;strokeColor=#00CC00;" edge="1" parent="1">
          <mxGeometry width="50" height="50" relative="1" as="geometry">
            <mxPoint x="-270" y="500" as="sourcePoint" />
            <mxPoint x="-160" y="500" as="targetPoint" />
          </mxGeometry>
        </mxCell>
        <mxCell id="uKnK6LyMqeHW5GNhJm-Y-15" value="&lt;font style=&quot;font-size: 17px;&quot;&gt;Canal Audio&lt;/font&gt;&lt;div style=&quot;font-size: 17px;&quot;&gt;&lt;font style=&quot;font-size: 17px;&quot;&gt;Droit&lt;/font&gt;&lt;/div&gt;" style="edgeLabel;html=1;align=center;verticalAlign=middle;resizable=0;points=[];fontColor=#00CC00;fontSize=17;" vertex="1" connectable="0" parent="uKnK6LyMqeHW5GNhJm-Y-14">
          <mxGeometry x="0.4442" y="-1" relative="1" as="geometry">
            <mxPoint x="-29" y="-31" as="offset" />
          </mxGeometry>
        </mxCell>
        <mxCell id="uKnK6LyMqeHW5GNhJm-Y-20" value="" style="endArrow=none;html=1;rounded=0;exitX=1;exitY=0.053;exitDx=0;exitDy=0;exitPerimeter=0;strokeWidth=5;" edge="1" parent="1">
          <mxGeometry width="50" height="50" relative="1" as="geometry">
            <mxPoint x="100" y="370" as="sourcePoint" />
            <mxPoint x="280" y="370" as="targetPoint" />
          </mxGeometry>
        </mxCell>
        <mxCell id="uKnK6LyMqeHW5GNhJm-Y-21" value="GND" style="edgeLabel;html=1;align=center;verticalAlign=middle;resizable=0;points=[];fontSize=20;" vertex="1" connectable="0" parent="uKnK6LyMqeHW5GNhJm-Y-20">
          <mxGeometry x="0.4442" y="-1" relative="1" as="geometry">
            <mxPoint x="-50" y="-25" as="offset" />
          </mxGeometry>
        </mxCell>
        <mxCell id="uKnK6LyMqeHW5GNhJm-Y-22" value="" style="endArrow=none;html=1;rounded=0;exitX=1;exitY=0.053;exitDx=0;exitDy=0;exitPerimeter=0;strokeWidth=5;strokeColor=#FF0000;" edge="1" parent="1">
          <mxGeometry width="50" height="50" relative="1" as="geometry">
            <mxPoint x="100" y="400" as="sourcePoint" />
            <mxPoint x="250" y="400" as="targetPoint" />
          </mxGeometry>
        </mxCell>
        <mxCell id="uKnK6LyMqeHW5GNhJm-Y-23" value="&lt;font color=&quot;#ff0000&quot; style=&quot;font-size: 20px;&quot;&gt;+ 5 V&lt;/font&gt;" style="edgeLabel;html=1;align=center;verticalAlign=middle;resizable=0;points=[];fontSize=20;" vertex="1" connectable="0" parent="uKnK6LyMqeHW5GNhJm-Y-22">
          <mxGeometry x="0.4442" y="-1" relative="1" as="geometry">
            <mxPoint x="-50" y="19" as="offset" />
          </mxGeometry>
        </mxCell>
        <mxCell id="uKnK6LyMqeHW5GNhJm-Y-24" value="" style="endArrow=none;html=1;rounded=0;exitX=1;exitY=0.053;exitDx=0;exitDy=0;exitPerimeter=0;entryX=0.001;entryY=0.053;entryDx=0;entryDy=0;entryPerimeter=0;strokeWidth=5;strokeColor=#B300B3;" edge="1" parent="1">
          <mxGeometry width="50" height="50" relative="1" as="geometry">
            <mxPoint x="100" y="489.62" as="sourcePoint" />
            <mxPoint x="210" y="489.62" as="targetPoint" />
          </mxGeometry>
        </mxCell>
        <mxCell id="uKnK6LyMqeHW5GNhJm-Y-25" value="&lt;font style=&quot;font-size: 17px;&quot;&gt;Audio Mono&lt;/font&gt;" style="edgeLabel;html=1;align=center;verticalAlign=middle;resizable=0;points=[];fontSize=20;fontColor=#B300B3;" vertex="1" connectable="0" parent="uKnK6LyMqeHW5GNhJm-Y-24">
          <mxGeometry x="0.4442" y="-1" relative="1" as="geometry">
            <mxPoint x="-29" y="-21" as="offset" />
          </mxGeometry>
        </mxCell>
        <mxCell id="uKnK6LyMqeHW5GNhJm-Y-26" value="" style="endArrow=none;html=1;rounded=0;strokeWidth=5;strokeColor=#FF0000;entryX=0.155;entryY=0.021;entryDx=0;entryDy=0;entryPerimeter=0;" edge="1" parent="1" target="uKnK6LyMqeHW5GNhJm-Y-6">
          <mxGeometry width="50" height="50" relative="1" as="geometry">
            <mxPoint x="250" y="400" as="sourcePoint" />
            <mxPoint x="260" y="410" as="targetPoint" />
          </mxGeometry>
        </mxCell>
        <mxCell id="uKnK6LyMqeHW5GNhJm-Y-28" value="" style="endArrow=none;html=1;rounded=0;strokeWidth=5;entryX=0.273;entryY=0.015;entryDx=0;entryDy=0;entryPerimeter=0;" edge="1" parent="1" target="uKnK6LyMqeHW5GNhJm-Y-6">
          <mxGeometry width="50" height="50" relative="1" as="geometry">
            <mxPoint x="280" y="370" as="sourcePoint" />
            <mxPoint x="290" y="380" as="targetPoint" />
          </mxGeometry>
        </mxCell>
        <mxCell id="uKnK6LyMqeHW5GNhJm-Y-30" value="" style="endArrow=none;html=1;rounded=0;exitX=1;exitY=0.053;exitDx=0;exitDy=0;exitPerimeter=0;strokeWidth=5;strokeColor=#00FFFF;" edge="1" parent="1">
          <mxGeometry width="50" height="50" relative="1" as="geometry">
            <mxPoint x="470" y="480" as="sourcePoint" />
            <mxPoint x="570" y="480" as="targetPoint" />
          </mxGeometry>
        </mxCell>
        <mxCell id="uKnK6LyMqeHW5GNhJm-Y-31" value="&lt;font color=&quot;#00ffff&quot;&gt;PWM&lt;/font&gt;" style="edgeLabel;html=1;align=center;verticalAlign=middle;resizable=0;points=[];fontSize=20;" vertex="1" connectable="0" parent="uKnK6LyMqeHW5GNhJm-Y-30">
          <mxGeometry x="0.4442" y="-1" relative="1" as="geometry">
            <mxPoint x="-22" y="-25" as="offset" />
          </mxGeometry>
        </mxCell>
        <mxCell id="uKnK6LyMqeHW5GNhJm-Y-32" value="" style="endArrow=none;html=1;rounded=0;strokeWidth=5;strokeColor=#00FFFF;" edge="1" parent="1">
          <mxGeometry width="50" height="50" relative="1" as="geometry">
            <mxPoint x="570" y="480" as="sourcePoint" />
            <mxPoint x="570" y="720" as="targetPoint" />
          </mxGeometry>
        </mxCell>
        <mxCell id="uKnK6LyMqeHW5GNhJm-Y-34" value="" style="endArrow=none;html=1;rounded=0;strokeWidth=5;strokeColor=#00FFFF;" edge="1" parent="1">
          <mxGeometry width="50" height="50" relative="1" as="geometry">
            <mxPoint x="-320" y="720" as="sourcePoint" />
            <mxPoint x="570" y="720" as="targetPoint" />
          </mxGeometry>
        </mxCell>
        <mxCell id="uKnK6LyMqeHW5GNhJm-Y-35" value="" style="endArrow=none;html=1;rounded=0;strokeWidth=5;strokeColor=#00FFFF;entryX=0.538;entryY=0;entryDx=0;entryDy=0;entryPerimeter=0;" edge="1" parent="1" target="T6KaMjCdg2ulaxOOMzz2-4">
          <mxGeometry width="50" height="50" relative="1" as="geometry">
            <mxPoint x="-320" y="720" as="sourcePoint" />
            <mxPoint x="610" y="690" as="targetPoint" />
          </mxGeometry>
        </mxCell>
        <mxCell id="uKnK6LyMqeHW5GNhJm-Y-36" value="" style="endArrow=none;html=1;rounded=0;exitX=1;exitY=0.053;exitDx=0;exitDy=0;exitPerimeter=0;entryX=-0.01;entryY=0.154;entryDx=0;entryDy=0;entryPerimeter=0;strokeWidth=5;" edge="1" parent="1">
          <mxGeometry width="50" height="50" relative="1" as="geometry">
            <mxPoint x="-577.4" y="889.52" as="sourcePoint" />
            <mxPoint x="-459.9999999999999" y="889.56" as="targetPoint" />
          </mxGeometry>
        </mxCell>
        <mxCell id="uKnK6LyMqeHW5GNhJm-Y-37" value="GND" style="edgeLabel;html=1;align=center;verticalAlign=middle;resizable=0;points=[];fontSize=20;" vertex="1" connectable="0" parent="uKnK6LyMqeHW5GNhJm-Y-36">
          <mxGeometry x="0.4442" y="-1" relative="1" as="geometry">
            <mxPoint x="-50" y="-25" as="offset" />
          </mxGeometry>
        </mxCell>
        <mxCell id="uKnK6LyMqeHW5GNhJm-Y-38" value="" style="endArrow=none;html=1;rounded=0;exitX=1.006;exitY=0.144;exitDx=0;exitDy=0;exitPerimeter=0;entryX=-0.012;entryY=0.111;entryDx=0;entryDy=0;strokeWidth=5;strokeColor=#FF0000;entryPerimeter=0;" edge="1" parent="1" target="T6KaMjCdg2ulaxOOMzz2-4">
          <mxGeometry width="50" height="50" relative="1" as="geometry">
            <mxPoint x="-578.3199999999997" y="788.8800000000001" as="sourcePoint" />
            <mxPoint x="-470" y="825.52" as="targetPoint" />
          </mxGeometry>
        </mxCell>
        <mxCell id="uKnK6LyMqeHW5GNhJm-Y-39" value="&lt;font color=&quot;#ff0000&quot; style=&quot;font-size: 20px;&quot;&gt;+ 12 V&lt;/font&gt;" style="edgeLabel;html=1;align=center;verticalAlign=middle;resizable=0;points=[];fontSize=20;" vertex="1" connectable="0" parent="uKnK6LyMqeHW5GNhJm-Y-38">
          <mxGeometry x="0.4442" y="-1" relative="1" as="geometry">
            <mxPoint x="-50" y="19" as="offset" />
          </mxGeometry>
        </mxCell>
        <mxCell id="uKnK6LyMqeHW5GNhJm-Y-40" value="" style="endArrow=none;html=1;rounded=0;strokeWidth=5;strokeColor=#FF0000;" edge="1" parent="1">
          <mxGeometry width="50" height="50" relative="1" as="geometry">
            <mxPoint x="-530" y="790" as="sourcePoint" />
            <mxPoint x="-530" y="650" as="targetPoint" />
          </mxGeometry>
        </mxCell>
        <mxCell id="uKnK6LyMqeHW5GNhJm-Y-42" value="" style="endArrow=none;html=1;rounded=0;strokeWidth=5;strokeColor=#FF0000;" edge="1" parent="1">
          <mxGeometry width="50" height="50" relative="1" as="geometry">
            <mxPoint x="-40" y="650" as="sourcePoint" />
            <mxPoint x="-530" y="650" as="targetPoint" />
          </mxGeometry>
        </mxCell>
        <mxCell id="uKnK6LyMqeHW5GNhJm-Y-43" value="" style="endArrow=none;html=1;rounded=0;strokeWidth=5;strokeColor=#FF0000;" edge="1" parent="1">
          <mxGeometry width="50" height="50" relative="1" as="geometry">
            <mxPoint x="-40" y="650" as="sourcePoint" />
            <mxPoint x="-40" y="620" as="targetPoint" />
          </mxGeometry>
        </mxCell>
        <mxCell id="uKnK6LyMqeHW5GNhJm-Y-44" value="" style="endArrow=none;html=1;rounded=0;strokeWidth=5;strokeColor=#000000;" edge="1" parent="1">
          <mxGeometry width="50" height="50" relative="1" as="geometry">
            <mxPoint x="-491" y="890" as="sourcePoint" />
            <mxPoint x="-491" y="680" as="targetPoint" />
          </mxGeometry>
        </mxCell>
        <mxCell id="uKnK6LyMqeHW5GNhJm-Y-45" value="" style="endArrow=none;html=1;rounded=0;strokeWidth=5;strokeColor=#000000;" edge="1" parent="1">
          <mxGeometry width="50" height="50" relative="1" as="geometry">
            <mxPoint x="-1" y="680" as="sourcePoint" />
            <mxPoint x="-491" y="680" as="targetPoint" />
          </mxGeometry>
        </mxCell>
        <mxCell id="uKnK6LyMqeHW5GNhJm-Y-46" value="" style="endArrow=none;html=1;rounded=0;strokeWidth=5;strokeColor=#000000;entryX=0.612;entryY=1.006;entryDx=0;entryDy=0;entryPerimeter=0;" edge="1" parent="1" target="T6KaMjCdg2ulaxOOMzz2-3">
          <mxGeometry width="50" height="50" relative="1" as="geometry">
            <mxPoint x="-1" y="680" as="sourcePoint" />
            <mxPoint x="-1" y="650" as="targetPoint" />
          </mxGeometry>
        </mxCell>
        <mxCell id="uKnK6LyMqeHW5GNhJm-Y-47" value="" style="endArrow=none;html=1;rounded=0;exitX=1;exitY=0.053;exitDx=0;exitDy=0;exitPerimeter=0;entryX=-0.01;entryY=0.677;entryDx=0;entryDy=0;entryPerimeter=0;strokeWidth=5;strokeColor=#0000CC;" edge="1" parent="1" target="T6KaMjCdg2ulaxOOMzz2-5">
          <mxGeometry width="50" height="50" relative="1" as="geometry">
            <mxPoint x="-200" y="932.13" as="sourcePoint" />
            <mxPoint x="-90" y="932.13" as="targetPoint" />
          </mxGeometry>
        </mxCell>
        <mxCell id="uKnK6LyMqeHW5GNhJm-Y-48" value="MLI 2" style="edgeLabel;html=1;align=center;verticalAlign=middle;resizable=0;points=[];fontColor=#0000CC;fontSize=17;" vertex="1" connectable="0" parent="uKnK6LyMqeHW5GNhJm-Y-47">
          <mxGeometry x="0.4442" y="-1" relative="1" as="geometry">
            <mxPoint x="-29" y="-30" as="offset" />
          </mxGeometry>
        </mxCell>
        <mxCell id="uKnK6LyMqeHW5GNhJm-Y-49" value="" style="endArrow=none;html=1;rounded=0;exitX=1;exitY=0.053;exitDx=0;exitDy=0;exitPerimeter=0;entryX=0.005;entryY=0.354;entryDx=0;entryDy=0;entryPerimeter=0;strokeWidth=5;strokeColor=#00CC00;" edge="1" parent="1" target="T6KaMjCdg2ulaxOOMzz2-5">
          <mxGeometry width="50" height="50" relative="1" as="geometry">
            <mxPoint x="-200" y="847.13" as="sourcePoint" />
            <mxPoint x="-90" y="847.13" as="targetPoint" />
          </mxGeometry>
        </mxCell>
        <mxCell id="uKnK6LyMqeHW5GNhJm-Y-50" value="MLI 1" style="edgeLabel;html=1;align=center;verticalAlign=middle;resizable=0;points=[];fontColor=#00CC00;fontSize=17;" vertex="1" connectable="0" parent="uKnK6LyMqeHW5GNhJm-Y-49">
          <mxGeometry x="0.4442" y="-1" relative="1" as="geometry">
            <mxPoint x="-29" y="-31" as="offset" />
          </mxGeometry>
        </mxCell>
        <mxCell id="uKnK6LyMqeHW5GNhJm-Y-51" value="" style="endArrow=none;html=1;rounded=0;exitX=1.009;exitY=0.622;exitDx=0;exitDy=0;exitPerimeter=0;entryX=0;entryY=0.6;entryDx=0;entryDy=0;entryPerimeter=0;strokeWidth=5;strokeColor=#0000CC;" edge="1" parent="1" source="T6KaMjCdg2ulaxOOMzz2-5" target="uKnK6LyMqeHW5GNhJm-Y-56">
          <mxGeometry width="50" height="50" relative="1" as="geometry">
            <mxPoint x="200" y="921.13" as="sourcePoint" />
            <mxPoint x="337" y="920" as="targetPoint" />
          </mxGeometry>
        </mxCell>
        <mxCell id="uKnK6LyMqeHW5GNhJm-Y-52" value="MLI 2 Filtree" style="edgeLabel;html=1;align=center;verticalAlign=middle;resizable=0;points=[];fontColor=#0000CC;fontSize=17;" vertex="1" connectable="0" parent="uKnK6LyMqeHW5GNhJm-Y-51">
          <mxGeometry x="0.4442" y="-1" relative="1" as="geometry">
            <mxPoint x="-29" y="-30" as="offset" />
          </mxGeometry>
        </mxCell>
        <mxCell id="uKnK6LyMqeHW5GNhJm-Y-53" value="" style="endArrow=none;html=1;rounded=0;exitX=1.002;exitY=0.411;exitDx=0;exitDy=0;exitPerimeter=0;entryX=0;entryY=0.4;entryDx=0;entryDy=0;entryPerimeter=0;strokeWidth=5;strokeColor=#00CC00;" edge="1" parent="1" source="T6KaMjCdg2ulaxOOMzz2-5" target="uKnK6LyMqeHW5GNhJm-Y-56">
          <mxGeometry width="50" height="50" relative="1" as="geometry">
            <mxPoint x="200" y="847.57" as="sourcePoint" />
            <mxPoint x="341" y="847.44" as="targetPoint" />
          </mxGeometry>
        </mxCell>
        <mxCell id="uKnK6LyMqeHW5GNhJm-Y-54" value="MLI 1 Filtree" style="edgeLabel;html=1;align=center;verticalAlign=middle;resizable=0;points=[];fontColor=#00CC00;fontSize=17;" vertex="1" connectable="0" parent="uKnK6LyMqeHW5GNhJm-Y-53">
          <mxGeometry x="0.4442" y="-1" relative="1" as="geometry">
            <mxPoint x="-29" y="-31" as="offset" />
          </mxGeometry>
        </mxCell>
        <mxCell id="uKnK6LyMqeHW5GNhJm-Y-55" value="" style="html=1;verticalLabelPosition=bottom;align=center;labelBackgroundColor=#ffffff;verticalAlign=top;strokeWidth=2;strokeColor=#0080F0;shadow=0;dashed=0;shape=mxgraph.ios7.icons.note;pointerEvents=1" vertex="1" parent="1">
          <mxGeometry x="530" y="832.5799999999999" width="120" height="104.85" as="geometry" />
        </mxCell>
        <mxCell id="uKnK6LyMqeHW5GNhJm-Y-56" value="" style="pointerEvents=1;verticalLabelPosition=bottom;shadow=0;dashed=0;align=center;html=1;verticalAlign=top;shape=mxgraph.electrical.electro-mechanical.loudspeaker;" vertex="1" parent="1">
          <mxGeometry x="350" y="752.5" width="170" height="275.01" as="geometry" />
        </mxCell>
        <mxCell id="uKnK6LyMqeHW5GNhJm-Y-57" value="" style="html=1;verticalLabelPosition=bottom;align=center;labelBackgroundColor=#ffffff;verticalAlign=top;strokeWidth=2;strokeColor=#0080F0;shadow=0;dashed=0;shape=mxgraph.ios7.icons.battery;rotation=-90;" vertex="1" parent="1">
          <mxGeometry x="-750" y="810" width="240" height="100" as="geometry" />
        </mxCell>
      </root>
    </mxGraphModel>
  </diagram>
</mxfile>
